<svg width="24" height="24" viewBox="0 0 24 24" fill="none" xmlns="http://www.w3.org/2000/svg">
<g clip-path="url(#clip0_39_454)">
<path d="M10.1698 5.00021C10.3192 4.9997 10.4668 5.03268 10.6018 5.09671C10.7368 5.16073 10.8557 5.25419 10.9498 5.37021L15.7798 11.3702C15.9269 11.5491 16.0073 11.7736 16.0073 12.0052C16.0073 12.2368 15.9269 12.4613 15.7798 12.6402L10.7798 18.6402C10.6101 18.8444 10.3662 18.9729 10.1018 18.9972C9.83733 19.0216 9.57405 18.94 9.36984 18.7702C9.16562 18.6005 9.0372 18.3566 9.01282 18.0921C8.98844 17.8277 9.0701 17.5644 9.23984 17.3602L13.7098 12.0002L9.38984 6.64021C9.26755 6.49343 9.18988 6.31469 9.166 6.12514C9.14212 5.93559 9.17303 5.74317 9.25509 5.57064C9.33715 5.39811 9.46691 5.2527 9.62902 5.15161C9.79113 5.05052 9.9788 4.99798 10.1698 5.00021Z" fill="#9E9E9E"/>
</g>
<defs>
<clipPath id="clip0_39_454">
<rect width="24" height="24" fill="white" transform="matrix(-1 0 0 -1 24 24.0002)"/>
</clipPath>
</defs>
</svg>
