<svg width="26" height="26" viewBox="0 0 26 26" fill="none" xmlns="http://www.w3.org/2000/svg">
<path d="M13 11.9167C13.857 11.9167 14.6948 11.6625 15.4075 11.1864C16.1201 10.7102 16.6755 10.0334 17.0035 9.24163C17.3314 8.44982 17.4173 7.57853 17.2501 6.73794C17.0829 5.89736 16.6701 5.12523 16.0641 4.51921C15.4581 3.91318 14.686 3.50047 13.8454 3.33327C13.0048 3.16606 12.1335 3.25188 11.3417 3.57986C10.5499 3.90784 9.87311 4.46325 9.39696 5.17586C8.9208 5.88848 8.66666 6.72628 8.66666 7.58334C8.66666 8.73261 9.1232 9.83481 9.93586 10.6475C10.7485 11.4601 11.8507 11.9167 13 11.9167ZM13 5.41667C13.4285 5.41667 13.8474 5.54374 14.2037 5.78182C14.56 6.01989 14.8377 6.35828 15.0017 6.75419C15.1657 7.15009 15.2086 7.58574 15.125 8.00603C15.0414 8.42632 14.8351 8.81239 14.5321 9.1154C14.229 9.41841 13.843 9.62477 13.4227 9.70837C13.0024 9.79197 12.5667 9.74906 12.1708 9.58507C11.7749 9.42108 11.4365 9.14338 11.1985 8.78707C10.9604 8.43076 10.8333 8.01186 10.8333 7.58334C10.8333 7.0087 11.0616 6.4576 11.4679 6.05127C11.8743 5.64494 12.4254 5.41667 13 5.41667Z" fill="#9E9E9E"/>
<path d="M13 14.0833C10.9888 14.0833 9.05991 14.8823 7.63776 16.3044C6.21561 17.7266 5.41666 19.6554 5.41666 21.6666C5.41666 21.954 5.53079 22.2295 5.73396 22.4327C5.93712 22.6358 6.21267 22.75 6.49999 22.75C6.78731 22.75 7.06286 22.6358 7.26602 22.4327C7.46919 22.2295 7.58332 21.954 7.58332 21.6666C7.58332 20.2301 8.15401 18.8523 9.16983 17.8365C10.1857 16.8207 11.5634 16.25 13 16.25C14.4366 16.25 15.8143 16.8207 16.8302 17.8365C17.846 18.8523 18.4167 20.2301 18.4167 21.6666C18.4167 21.954 18.5308 22.2295 18.734 22.4327C18.9371 22.6358 19.2127 22.75 19.5 22.75C19.7873 22.75 20.0629 22.6358 20.266 22.4327C20.4692 22.2295 20.5833 21.954 20.5833 21.6666C20.5833 19.6554 19.7844 17.7266 18.3622 16.3044C16.9401 14.8823 15.0112 14.0833 13 14.0833Z" fill="#9E9E9E"/>
</svg>
