<svg width="26" height="26" viewBox="0 0 26 26" fill="none" xmlns="http://www.w3.org/2000/svg">
<path d="M22.75 6.5C22.75 5.63805 22.4076 4.8114 21.7981 4.2019C21.1886 3.59241 20.3619 3.25 19.5 3.25H6.49998C5.84564 3.25387 5.2077 3.45518 4.66964 3.82758C4.13159 4.19997 3.71847 4.72611 3.48436 5.33716C3.25024 5.9482 3.20603 6.61568 3.3575 7.25227C3.50898 7.88885 3.84908 8.46489 4.33332 8.905V19.5C4.33332 20.362 4.67573 21.1886 5.28522 21.7981C5.89471 22.4076 6.72136 22.75 7.58332 22.75H18.4167C19.2786 22.75 20.1053 22.4076 20.7148 21.7981C21.3242 21.1886 21.6667 20.362 21.6667 19.5V8.905C22.0053 8.60212 22.2767 8.23159 22.4633 7.81735C22.6499 7.4031 22.7475 6.95433 22.75 6.5ZM6.49998 5.41667H19.5C19.7873 5.41667 20.0629 5.5308 20.266 5.73397C20.4692 5.93713 20.5833 6.21268 20.5833 6.5C20.5833 6.78732 20.4692 7.06287 20.266 7.26603C20.0629 7.4692 19.7873 7.58333 19.5 7.58333H6.49998C6.21267 7.58333 5.93712 7.4692 5.73395 7.26603C5.53079 7.06287 5.41665 6.78732 5.41665 6.5C5.41665 6.21268 5.53079 5.93713 5.73395 5.73397C5.93712 5.5308 6.21267 5.41667 6.49998 5.41667ZM19.5 19.5C19.5 19.7873 19.3858 20.0629 19.1827 20.266C18.9795 20.4692 18.704 20.5833 18.4167 20.5833H7.58332C7.296 20.5833 7.02045 20.4692 6.81729 20.266C6.61412 20.0629 6.49998 19.7873 6.49998 19.5V9.75H19.5V19.5Z" fill="#9E9E9E"/>
<path d="M15.3075 13H10.6925C10.172 13 9.75 13.422 9.75 13.9425V14.2242C9.75 14.7447 10.172 15.1667 10.6925 15.1667H15.3075C15.828 15.1667 16.25 14.7447 16.25 14.2242V13.9425C16.25 13.422 15.828 13 15.3075 13Z" fill="#9E9E9E"/>
</svg>
