<svg width="26" height="26" viewBox="0 0 26 26" fill="none" xmlns="http://www.w3.org/2000/svg">
<path d="M21.385 9.02414L15.4917 2.52414C15.3904 2.41191 15.2667 2.32213 15.1287 2.26056C14.9906 2.19899 14.8412 2.167 14.69 2.16664H7.10668C6.74674 2.16234 6.38948 2.22899 6.0553 2.36278C5.72112 2.49657 5.41657 2.69487 5.15904 2.94637C4.90151 3.19787 4.69604 3.49763 4.55436 3.82854C4.41269 4.15945 4.33759 4.51503 4.33334 4.87497V21.125C4.33759 21.4849 4.41269 21.8405 4.55436 22.1714C4.69604 22.5023 4.90151 22.8021 5.15904 23.0536C5.41657 23.3051 5.72112 23.5034 6.0553 23.6372C6.38948 23.7709 6.74674 23.8376 7.10668 23.8333H18.8933C19.2533 23.8376 19.6105 23.7709 19.9447 23.6372C20.2789 23.5034 20.5834 23.3051 20.841 23.0536C21.0985 22.8021 21.304 22.5023 21.4457 22.1714C21.5873 21.8405 21.6624 21.4849 21.6667 21.125V9.74997C21.666 9.48148 21.5656 9.22282 21.385 9.02414ZM19.1208 9.74997H14.8525C14.6292 9.72798 14.4234 9.61914 14.2795 9.44691C14.1357 9.27467 14.0652 9.05282 14.0833 8.82914V4.3333H14.2025L19.1208 9.74997ZM18.8933 21.6666H7.10668C7.03125 21.671 6.9557 21.6605 6.88435 21.6356C6.813 21.6108 6.74727 21.5721 6.69091 21.5217C6.63455 21.4714 6.58867 21.4105 6.55592 21.3424C6.52316 21.2743 6.50416 21.2004 6.50001 21.125V4.87497C6.50416 4.79953 6.52316 4.72565 6.55592 4.65756C6.58867 4.58948 6.63455 4.52853 6.69091 4.47821C6.74727 4.42789 6.813 4.38918 6.88435 4.36432C6.9557 4.33945 7.03125 4.32891 7.10668 4.3333H11.9167V8.82914C11.8992 9.62715 12.1981 10.3997 12.7481 10.9781C13.2981 11.5566 14.0546 11.8939 14.8525 11.9166H19.5V21.125C19.4959 21.2004 19.4769 21.2743 19.4441 21.3424C19.4113 21.4105 19.3655 21.4714 19.3091 21.5217C19.2528 21.5721 19.187 21.6108 19.1157 21.6356C19.0443 21.6605 18.9688 21.671 18.8933 21.6666Z" fill="#383FF5"/>
</svg>
