<svg width="195" height="175" viewBox="0 0 195 175" fill="none" xmlns="http://www.w3.org/2000/svg">
<path d="M10.1616 167.383C7.32156 167.383 5.17156 166.763 3.71156 165.523C2.25156 164.283 1.45156 162.553 1.31156 160.333H5.96156C6.08156 161.433 6.44156 162.293 7.04156 162.913C7.66156 163.533 8.70156 163.843 10.1616 163.843C11.2216 163.843 12.0716 163.583 12.7116 163.063C13.3716 162.523 13.7016 161.833 13.7016 160.993C13.7016 160.133 13.4216 159.513 12.8616 159.133C12.3016 158.753 11.2316 158.443 9.65156 158.203C6.85156 157.843 4.86156 157.183 3.68156 156.223C2.50156 155.243 1.91156 153.733 1.91156 151.693C1.91156 149.833 2.62156 148.303 4.04156 147.103C5.48156 145.903 7.37156 145.303 9.71156 145.303C12.1316 145.303 14.0216 145.843 15.3816 146.923C16.7616 148.003 17.5516 149.603 17.7516 151.723H13.2816C12.9816 149.823 11.7916 148.873 9.71156 148.873C8.67156 148.873 7.87156 149.093 7.31156 149.533C6.77156 149.973 6.50156 150.563 6.50156 151.303C6.50156 152.103 6.76156 152.703 7.28156 153.103C7.82156 153.483 8.89156 153.793 10.4916 154.033C13.2516 154.393 15.2516 155.043 16.4916 155.983C17.7316 156.903 18.3516 158.423 18.3516 160.543C18.3516 162.503 17.6016 164.133 16.1016 165.433C14.6216 166.733 12.6416 167.383 10.1616 167.383ZM21.461 167.053V144.253H25.811V157.993L30.851 151.363H35.471L29.771 158.503L35.921 167.053H31.001L25.811 159.643V167.053H21.461ZM38.2216 167.053V151.363H42.5416V167.053H38.2216ZM42.1216 148.573C41.6416 149.013 41.0516 149.233 40.3516 149.233C39.6516 149.233 39.0616 149.013 38.5816 148.573C38.1216 148.113 37.8916 147.543 37.8916 146.863C37.8916 146.183 38.1216 145.623 38.5816 145.183C39.0616 144.723 39.6516 144.493 40.3516 144.493C41.0516 144.493 41.6416 144.723 42.1216 145.183C42.6016 145.623 42.8416 146.183 42.8416 146.863C42.8416 147.543 42.6016 148.113 42.1216 148.573ZM46.6591 167.053V144.253H50.9791V167.053H46.6591ZM55.0673 167.053V144.253H59.3873V167.053H55.0673ZM72.7155 167.383C71.5355 167.383 70.5055 167.123 69.6255 166.603C68.7655 166.083 68.1255 165.403 67.7055 164.563V167.053H63.3555V144.253H67.7055V153.823C68.1655 153.023 68.8355 152.353 69.7155 151.813C70.6155 151.273 71.6155 151.003 72.7155 151.003C74.7155 151.003 76.3555 151.713 77.6355 153.133C78.9155 154.553 79.5555 156.523 79.5555 159.043V159.283C79.5555 161.803 78.9155 163.783 77.6355 165.223C76.3555 166.663 74.7155 167.383 72.7155 167.383ZM71.4255 163.993C72.6255 163.993 73.5455 163.593 74.1855 162.793C74.8255 161.993 75.1455 160.833 75.1455 159.313V159.073C75.1455 157.533 74.8055 156.363 74.1255 155.563C73.4455 154.743 72.5355 154.333 71.3955 154.333C70.2155 154.333 69.2755 154.743 68.5755 155.563C67.8955 156.363 67.5555 157.533 67.5555 159.073V159.313C67.5555 160.853 67.8955 162.023 68.5755 162.823C69.2555 163.603 70.2055 163.993 71.4255 163.993ZM86.9271 162.823C87.6071 163.663 88.5571 164.083 89.7771 164.083C90.9971 164.083 91.9371 163.663 92.5971 162.823C93.2771 161.983 93.6171 160.813 93.6171 159.313V159.103C93.6171 157.603 93.2771 156.433 92.5971 155.593C91.9371 154.733 90.9971 154.303 89.7771 154.303C88.5771 154.303 87.6371 154.723 86.9571 155.563C86.2771 156.383 85.9371 157.543 85.9371 159.043V159.283C85.9371 160.783 86.2671 161.963 86.9271 162.823ZM89.7471 167.383C87.3671 167.383 85.3971 166.653 83.8371 165.193C82.2771 163.713 81.4971 161.773 81.4971 159.373V159.133C81.4971 156.713 82.2771 154.753 83.8371 153.253C85.3971 151.753 87.3771 151.003 89.7771 151.003C92.1771 151.003 94.1471 151.743 95.6871 153.223C97.2471 154.683 98.0271 156.623 98.0271 159.043V159.283C98.0271 161.723 97.2471 163.683 95.6871 165.163C94.1271 166.643 92.1471 167.383 89.7471 167.383ZM98.3323 167.053L103.702 159.043L98.6923 151.363H103.672L106.612 156.073L109.492 151.363H113.992L108.982 158.713L114.502 167.053H109.492L106.192 161.773L102.802 167.053H98.3323ZM127.507 164.923H130.447C133.147 164.923 135.197 164.173 136.597 162.673C138.017 161.153 138.727 159.053 138.727 156.373V156.133C138.727 153.513 138.047 151.453 136.687 149.953C135.347 148.453 133.257 147.703 130.417 147.703H127.507V164.923ZM124.897 167.053V145.603H130.567C134.107 145.603 136.797 146.573 138.637 148.513C140.497 150.453 141.427 152.993 141.427 156.133V156.403C141.427 159.543 140.497 162.103 138.637 164.083C136.797 166.063 134.087 167.053 130.507 167.053H124.897ZM145.606 167.053V151.363H148.096V154.183C148.636 153.203 149.296 152.453 150.076 151.933C150.876 151.413 151.936 151.133 153.256 151.093V153.433C151.536 153.513 150.246 153.913 149.386 154.633C148.526 155.353 148.096 156.623 148.096 158.443V167.053H145.606ZM156.945 167.053V151.363H159.435V167.053H156.945ZM159.285 147.613C158.965 147.933 158.585 148.093 158.145 148.093C157.705 148.093 157.315 147.933 156.975 147.613C156.655 147.293 156.495 146.903 156.495 146.443C156.495 145.983 156.655 145.593 156.975 145.273C157.315 144.953 157.705 144.793 158.145 144.793C158.585 144.793 158.965 144.953 159.285 145.273C159.625 145.593 159.795 145.983 159.795 146.443C159.795 146.903 159.625 147.293 159.285 147.613ZM168.462 167.053L162.762 151.363H165.462L170.112 164.533L174.702 151.363H177.282L171.642 167.053H168.462ZM186.538 167.323C184.298 167.323 182.468 166.603 181.048 165.163C179.648 163.703 178.948 161.773 178.948 159.373V159.133C178.948 156.773 179.628 154.843 180.988 153.343C182.368 151.843 184.138 151.093 186.298 151.093C188.298 151.093 189.968 151.743 191.308 153.043C192.668 154.323 193.348 156.273 193.348 158.893V159.703H181.528C181.588 161.503 182.038 162.883 182.878 163.843C183.738 164.783 184.968 165.253 186.568 165.253C189.028 165.253 190.418 164.343 190.738 162.523H193.228C192.968 164.063 192.238 165.253 191.038 166.093C189.838 166.913 188.338 167.323 186.538 167.323ZM181.618 157.693H190.798C190.578 154.673 189.078 153.163 186.298 153.163C185.038 153.163 183.998 153.573 183.178 154.393C182.358 155.193 181.838 156.293 181.618 157.693Z" fill="black"/>
<g filter="url(#filter0_d_102_471)">
<path d="M83.3796 8.91259C89.2941 6.74919 97.0059 5.61913 102.639 6.35849C110.568 7.39907 115.806 13.2928 120.914 20.2075C127.158 28.6586 137.115 48.5149 130.25 64.0864C132.147 46.7728 123.277 38.9055 118.89 35.3444C115.787 32.8262 111.441 30.9608 107.827 30.078C82.5193 23.8944 51.3877 54.0767 61.8401 95.3363C61.4525 94.9152 62.2038 95.7077 61.8401 95.3363C60.4453 94.0901 58.8132 91.9376 58.3789 91.3477C47.2976 77.3549 45.4709 60.062 49.2314 45.6524C50.9928 38.9031 54.191 32.5598 57.8795 27.5952C64.7305 18.374 74.3661 11.7144 83.3796 8.91259Z" fill="url(#paint0_linear_102_471)"/>
<path d="M150.519 76.5734C148.612 82.5752 143.517 90.0304 139.485 94.0338C133.81 99.6683 127.456 98.9626 118.861 98.772C108.356 98.5391 92.7886 91.2996 87.789 86.6101C95.7372 89.9446 103.577 89.2672 108.128 87.9087C111.957 86.7656 114.368 86.1532 118.861 82.8812C124.051 79.102 127.646 73.3803 129.672 66.5655C133.425 49.9482 127.244 18.7315 98.2647 6.12467C99.6435 5.98896 103.217 5.99154 107.35 6.51745C109.695 6.81586 112.352 7.34502 114.629 7.98311C116.148 8.40871 118.199 9.05173 120.298 9.9003C122.644 10.849 125.062 12.0426 127.098 13.2363C128.44 13.9961 129.688 14.8095 130.906 15.6619C141.75 23.2486 148.409 33.6771 151.476 44.4014C154.708 55.7043 153.963 67.3419 150.519 76.5734Z" fill="url(#paint1_linear_102_471)"/>
<path d="M60.3242 62.6564C61.2588 58.6762 63.3749 54.3751 63.3749 54.3751C63.3749 54.3751 67.2366 42.6553 84.1235 34.0016C71.583 41.1728 70.9763 50.4655 70.5733 55.5221C70.2889 59.0906 70.3873 63.3188 72.3873 69.551C79.5981 92.0205 122.972 103.784 151.828 72.496C151.373 74.1646 150.993 75.0303 150.212 77.4772C149.271 80.4278 147.493 84.4055 144.004 89.4278C142.758 91.2226 139.711 95.1368 135.623 98.8207C134.899 99.474 134.271 99.9837 133.527 100.58C129.359 103.922 124.815 106.287 120.403 108.108C114.282 110.636 108.441 111.839 102.458 112.068C88.9327 112.586 76.2507 107.799 67.7594 100.767C63.1089 96.9152 62.6897 96.2593 61.8401 95.3363C61.536 94.4497 60.2923 92.2312 60.0886 91.5872C59.7486 90.5121 59.6495 89.8935 59.4488 89.1194C59.0506 87.5837 58.7706 84.6821 58.6948 83.5103C58.3416 78.0537 58.5148 70.3624 60.3242 62.6564Z" fill="url(#paint2_linear_102_471)"/>
</g>
<defs>
<filter id="filter0_d_102_471" x="43.4539" y="0.0493164" width="114.088" height="114.057" filterUnits="userSpaceOnUse" color-interpolation-filters="sRGB">
<feFlood flood-opacity="0" result="BackgroundImageFix"/>
<feColorMatrix in="SourceAlpha" type="matrix" values="0 0 0 0 0 0 0 0 0 0 0 0 0 0 0 0 0 0 127 0" result="hardAlpha"/>
<feOffset dy="-2"/>
<feGaussianBlur stdDeviation="2"/>
<feComposite in2="hardAlpha" operator="out"/>
<feColorMatrix type="matrix" values="0 0 0 0 0 0 0 0 0 0 0 0 0 0 0 0 0 0 0.2 0"/>
<feBlend mode="normal" in2="BackgroundImageFix" result="effect1_dropShadow_102_471"/>
<feBlend mode="normal" in="SourceGraphic" in2="effect1_dropShadow_102_471" result="shape"/>
</filter>
<linearGradient id="paint0_linear_102_471" x1="100.498" y1="6.04932" x2="100.498" y2="112.106" gradientUnits="userSpaceOnUse">
<stop stop-color="#383FF5"/>
<stop offset="1" stop-color="#EEADAC"/>
</linearGradient>
<linearGradient id="paint1_linear_102_471" x1="100.498" y1="6.04932" x2="100.498" y2="112.106" gradientUnits="userSpaceOnUse">
<stop stop-color="#EFAEAC"/>
<stop offset="1" stop-color="#383FF5"/>
</linearGradient>
<linearGradient id="paint2_linear_102_471" x1="62.6603" y1="97.1132" x2="136.589" y2="48.9196" gradientUnits="userSpaceOnUse">
<stop stop-color="#383FF5"/>
<stop offset="1" stop-color="#F1AFAB"/>
</linearGradient>
</defs>
</svg>
